# xmcd
#
# Track frame offsets:
#	150
#	11602
#	27867
#	42492
#	57935
#	72840
#
# Disc length: 1171 seconds
#
# Revision: 1
# Processed by: cddbd v1.5.2PL0 Copyright (c) Steve Scherf et al.
# Submitted via: audiograbber 1.83.01
#
DISCID=49049106
DTITLE=Comstock - Comstock Mid summer 2000
DYEAR=2000
DGENRE=Country
TTITLE0=Daddys Lavender - Roxanne Hall
TTITLE1=Proud Kentucky Ways - Larry Thomas and Stars´n Bars 
TTITLE2=Hero Of My Heart - Barbara Dex
TTITLE3=Good Morning Sunshine - Tomi Fujiyama
TTITLE4=Mordern Day Gypsy - Gary Mahnken
TTITLE5=Stop, Look And Listen - Valorie Joy
EXTD=
EXTT0=
EXTT1=
EXTT2=
EXTT3=
EXTT4=
EXTT5=
PLAYORDER=
